# xmcd
#
# Track frame offsets:
#	150
#	16494
#	30404
#	37283
#	49186
#	60843
#	70196
#	82427
#	93179
#	108673
#	118523
#	133704
#	144637
#	155801
#	167817
#	179165
#	189060
#	202486
#
# Disc length: 2876 seconds
# Revision: 1
# Processed by: cddbd v1.5.2PL0 Copyright (c) Steve Scherf et al.
# Submitted via: dBpowerAMP V12.0
#
DISCID=0e0b3a12
DTITLE=Various Artist - American Country Legends
DYEAR=2005
DGENRE=Country
TTITLE0=Johnny Cash - A Boy Named Sue*
TTITLE1=Willie Nelson - Blue Eyes Crying in the Rain*
TTITLE2=Waylon Jennings - It's So Easy
TTITLE3=Hank Williams - I'll Be a Bachelor Till I Die
TTITLE4=Jerry Lee Lewis - Chantilly Lace*
TTITLE5=Faron Young - King of the Road
TTITLE6=Billie Jo Spears - You Never Can Tell
TTITLE7=Don Williams - There's Always Something There to Remind Me
TTITLE8=Jolene Parsons - Don't It Make My Brown Eyes Blue
TTITLE9=Carl Perkins - This Ole House
TTITLE10=Glen Houston - Gentle on My Mind
TTITLE11=Loretta Lynn - Crazy*
TTITLE12=Don Gibson - Oh Lonesome Me
TTITLE13=Kenny Rogers - Me and Bobby McGee
TTITLE14=Lost Angels - Mr Tambourine Man
TTITLE15=Buck Owens - Rhythm and Booze
TTITLE16=Gene Vincent - I'm a Lonesome Fugitive
TTITLE17=George Jones - Hello Darlin'
EXTD=
EXTT0=
EXTT1=
EXTT2=
EXTT3=
EXTT4=
EXTT5=
EXTT6=
EXTT7=
EXTT8=
EXTT9=
EXTT10=
EXTT11=
EXTT12=
EXTT13=
EXTT14=
EXTT15=
EXTT16=
EXTT17=
PLAYORDER=
